<?xml version="1.0" encoding="UTF-8"?>
<!DOCTYPE svg PUBLIC "-//W3C//DTD SVG 1.1//EN" "http://www.w3.org/Graphics/SVG/1.1/DTD/svg11.dtd">
<svg xmlns="http://www.w3.org/2000/svg" version="1.1" width="512px" height="512px" style="shape-rendering:geometricPrecision; text-rendering:geometricPrecision; image-rendering:optimizeQuality; fill-rule:evenodd; clip-rule:evenodd" xmlns:xlink="http://www.w3.org/1999/xlink">
<g><path style="opacity:0.004" fill="#fefffe" d="M 369.5,1.5 C 370.833,2.16667 370.833,2.16667 369.5,1.5 Z"/></g>
<g><path style="opacity:0.004" fill="#fefffe" d="M 228.5,4.5 C 229.833,5.16667 229.833,5.16667 228.5,4.5 Z"/></g>
<g><path style="opacity:0.004" fill="#fefffe" d="M 183.5,7.5 C 184.833,8.16667 184.833,8.16667 183.5,7.5 Z"/></g>
<g><path style="opacity:0.004" fill="#fefffe" d="M 198.5,7.5 C 199.833,8.16667 199.833,8.16667 198.5,7.5 Z"/></g>
<g><path style="opacity:0.004" fill="#fefffe" d="M 397.5,15.5 C 398.833,16.1667 398.833,16.1667 397.5,15.5 Z"/></g>
<g><path style="opacity:0.004" fill="#fefffe" d="M 403.5,20.5 C 404.833,21.1667 404.833,21.1667 403.5,20.5 Z"/></g>
<g><path style="opacity:0.004" fill="#fefffe" d="M 482.5,21.5 C 483.833,22.1667 483.833,22.1667 482.5,21.5 Z"/></g>
<g><path style="opacity:0.004" fill="#fefffe" d="M 453.5,44.5 C 454.833,45.1667 454.833,45.1667 453.5,44.5 Z"/></g>
<g><path style="opacity:0.004" fill="#fefffe" d="M 64.5,56.5 C 65.8333,57.1667 65.8333,57.1667 64.5,56.5 Z"/></g>
<g><path style="opacity:0.004" fill="#fefffe" d="M 97.5,87.5 C 98.8333,88.1667 98.8333,88.1667 97.5,87.5 Z"/></g>
<g><path style="opacity:0.004" fill="#fefffe" d="M 348.5,89.5 C 349.833,90.1667 349.833,90.1667 348.5,89.5 Z"/></g>
<g><path style="opacity:0.004" fill="#fefffe" d="M 396.5,90.5 C 397.833,91.1667 397.833,91.1667 396.5,90.5 Z"/></g>
<g><path style="opacity:0.004" fill="#fefffe" d="M 430.5,100.5 C 431.833,101.167 431.833,101.167 430.5,100.5 Z"/></g>
<g><path style="opacity:0.004" fill="#fefffe" d="M 391.5,103.5 C 392.833,104.167 392.833,104.167 391.5,103.5 Z"/></g>
<g><path style="opacity:0.004" fill="#fefffe" d="M 374.5,104.5 C 375.833,105.167 375.833,105.167 374.5,104.5 Z"/></g>
<g><path style="opacity:0.004" fill="#fefffe" d="M 221.5,111.5 C 222.833,112.167 222.833,112.167 221.5,111.5 Z"/></g>
<g><path style="opacity:0.004" fill="#fefffe" d="M 175.5,115.5 C 176.833,116.167 176.833,116.167 175.5,115.5 Z"/></g>
<g><path style="opacity:0.004" fill="#fefffe" d="M 319.5,121.5 C 320.833,122.167 320.833,122.167 319.5,121.5 Z"/></g>
<g><path style="opacity:0.004" fill="#fefffe" d="M 377.5,123.5 C 378.833,124.167 378.833,124.167 377.5,123.5 Z"/></g>
<g><path style="opacity:0.996" fill="#66a6dc" d="M 234.5,130.5 C 237.331,131.079 239.664,132.412 241.5,134.5C 239.436,134.313 237.436,133.813 235.5,133C 234.748,132.329 234.414,131.496 234.5,130.5 Z"/></g>
<g><path style="opacity:0.004" fill="#fefffe" d="M 113.5,133.5 C 114.833,134.167 114.833,134.167 113.5,133.5 Z"/></g>
<g><path style="opacity:0.004" fill="#fefffe" d="M 386.5,136.5 C 387.833,137.167 387.833,137.167 386.5,136.5 Z"/></g>
<g><path style="opacity:1" fill="#7bb3e0" d="M 241.5,134.5 C 243.167,135.5 244.5,136.833 245.5,138.5C 244.5,138.5 243.5,138.5 242.5,138.5C 242.167,137.167 241.833,135.833 241.5,134.5 Z"/></g>
<g><path style="opacity:1" fill="#3390dd" d="M 234.5,130.5 C 234.414,131.496 234.748,132.329 235.5,133C 237.436,133.813 239.436,134.313 241.5,134.5C 241.833,135.833 242.167,137.167 242.5,138.5C 238.867,135.893 235.034,133.56 231,131.5C 229.56,132.148 228.06,132.481 226.5,132.5C 226.5,133.5 226.5,134.5 226.5,135.5C 227.552,135.351 228.552,135.517 229.5,136C 224.921,137.081 220.587,138.748 216.5,141C 211.333,146.167 206.167,151.333 201,156.5C 200.517,157.448 200.351,158.448 200.5,159.5C 198.784,159.629 197.117,159.962 195.5,160.5C 204.167,151.5 212.833,142.5 221.5,133.5C 225.231,129.663 229.565,128.663 234.5,130.5 Z"/></g>
<g><path style="opacity:0.718" fill="#a2d6f1" d="M 245.5,138.5 C 246.833,139.167 247.833,140.167 248.5,141.5C 246.5,141.5 245.5,140.5 245.5,138.5 Z"/></g>
<g><path style="opacity:1" fill="#178ee9" d="M 242.5,138.5 C 243.5,138.5 244.5,138.5 245.5,138.5C 245.5,140.5 246.5,141.5 248.5,141.5C 249.455,143.746 250.122,146.079 250.5,148.5C 251.873,148.343 253.207,148.51 254.5,149C 255.479,151.137 256.812,152.971 258.5,154.5C 260.129,157.266 260.795,160.266 260.5,163.5C 258.058,163.119 257.391,163.786 258.5,165.5C 257.624,166.251 256.624,166.751 255.5,167C 256.38,168.356 256.714,169.856 256.5,171.5C 254.234,171.859 252.401,171.192 251,169.5C 250.5,170 250,170.5 249.5,171C 251.155,172.444 251.822,174.278 251.5,176.5C 249.774,176.185 248.107,176.019 246.5,176C 246.167,176.333 245.833,176.667 245.5,177C 247.158,177.725 247.658,178.892 247,180.5C 246.586,180.043 246.086,179.709 245.5,179.5C 244.571,180.689 244.238,182.022 244.5,183.5C 242.876,183.64 241.71,182.973 241,181.5C 240.308,182.025 239.808,182.692 239.5,183.5C 240.246,184.736 240.579,186.07 240.5,187.5C 238.234,187.859 236.401,187.192 235,185.5C 234.5,186 234,186.5 233.5,187C 235.155,188.444 235.822,190.278 235.5,192.5C 233.774,192.185 232.107,192.019 230.5,192C 230.167,192.333 229.833,192.667 229.5,193C 231.158,193.725 231.658,194.892 231,196.5C 230.586,196.043 230.086,195.709 229.5,195.5C 228.571,196.689 228.238,198.022 228.5,199.5C 226.876,199.64 225.71,198.973 225,197.5C 224.308,198.025 223.808,198.692 223.5,199.5C 224.246,200.736 224.579,202.07 224.5,203.5C 222.234,203.859 220.401,203.192 219,201.5C 218.5,202 218,202.5 217.5,203C 219.155,204.444 219.822,206.278 219.5,208.5C 217.774,208.185 216.107,208.019 214.5,208C 214.167,208.333 213.833,208.667 213.5,209C 215.158,209.725 215.658,210.892 215,212.5C 214.586,212.043 214.086,211.709 213.5,211.5C 212.571,212.689 212.238,214.022 212.5,215.5C 210.876,215.64 209.71,214.973 209,213.5C 208.308,214.025 207.808,214.692 207.5,215.5C 208.246,216.736 208.579,218.07 208.5,219.5C 206.234,219.859 204.401,219.192 203,217.5C 202.5,218 202,218.5 201.5,219C 203.229,220.789 203.896,222.956 203.5,225.5C 202.127,225.343 200.793,225.51 199.5,226C 199.833,226.333 200.167,226.667 200.5,227C 199.244,227.417 198.577,228.25 198.5,229.5C 197.698,228.048 197.198,226.382 197,224.5C 196.25,225.126 195.416,225.626 194.5,226C 192.702,229.624 191.702,233.124 191.5,236.5C 192.5,236.5 193.5,236.5 194.5,236.5C 194.351,235.448 194.517,234.448 195,233.5C 195.309,234.766 195.809,235.933 196.5,237C 198.384,237.216 200.051,237.883 201.5,239C 196.914,243.453 192.581,248.12 188.5,253C 185.167,254.667 181.833,256.333 178.5,258C 176.578,259.42 175.245,261.253 174.5,263.5C 166.714,270.152 159.214,277.152 152,284.5C 152.896,286.939 153.563,289.606 154,292.5C 161.241,296.501 160.408,298.167 151.5,297.5C 150.256,294.31 149.256,290.977 148.5,287.5C 147.675,286.614 146.675,286.281 145.5,286.5C 145.336,289.187 145.503,291.854 146,294.5C 148.316,296.47 150.149,298.804 151.5,301.5C 150.311,302.429 148.978,302.762 147.5,302.5C 135.167,290.833 123.167,278.833 111.5,266.5C 107.845,259.309 107.512,251.976 110.5,244.5C 138.833,216.5 167.167,188.5 195.5,160.5C 197.117,159.962 198.784,159.629 200.5,159.5C 200.351,158.448 200.517,157.448 201,156.5C 206.167,151.333 211.333,146.167 216.5,141C 220.587,138.748 224.921,137.081 229.5,136C 228.552,135.517 227.552,135.351 226.5,135.5C 226.5,134.5 226.5,133.5 226.5,132.5C 228.06,132.481 229.56,132.148 231,131.5C 235.034,133.56 238.867,135.893 242.5,138.5 Z"/></g>
<g><path style="opacity:0.004" fill="#fefffe" d="M 353.5,143.5 C 354.833,144.167 354.833,144.167 353.5,143.5 Z"/></g>
<g><path style="opacity:0.004" fill="#fefffe" d="M 431.5,145.5 C 432.833,146.167 432.833,146.167 431.5,145.5 Z"/></g>
<g><path style="opacity:0.004" fill="#fefffe" d="M 65.5,153.5 C 66.8333,154.167 66.8333,154.167 65.5,153.5 Z"/></g>
<g><path style="opacity:0.004" fill="#fefffe" d="M 459.5,153.5 C 460.833,154.167 460.833,154.167 459.5,153.5 Z"/></g>
<g><path style="opacity:0.004" fill="#fefffe" d="M 382.5,154.5 C 383.833,155.167 383.833,155.167 382.5,154.5 Z"/></g>
<g><path style="opacity:0.58" fill="#b6d6f1" d="M 221.5,133.5 C 212.833,142.5 204.167,151.5 195.5,160.5C 167.167,188.5 138.833,216.5 110.5,244.5C 146.249,207.25 182.582,170.417 219.5,134C 220.094,133.536 220.761,133.369 221.5,133.5 Z"/></g>
<g><path style="opacity:0.004" fill="#fefffe" d="M 282.5,182.5 C 283.833,183.167 283.833,183.167 282.5,182.5 Z"/></g>
<g><path style="opacity:0.004" fill="#fefffe" d="M 152.5,184.5 C 153.833,185.167 153.833,185.167 152.5,184.5 Z"/></g>
<g><path style="opacity:0.004" fill="#fefffe" d="M 275.5,192.5 C 276.833,193.167 276.833,193.167 275.5,192.5 Z"/></g>
<g><path style="opacity:0.004" fill="#fefffe" d="M 417.5,195.5 C 418.833,196.167 418.833,196.167 417.5,195.5 Z"/></g>
<g><path style="opacity:0.004" fill="#fefffe" d="M 21.5,208.5 C 22.8333,209.167 22.8333,209.167 21.5,208.5 Z"/></g>
<g><path style="opacity:0.004" fill="#fefffe" d="M 78.5,208.5 C 79.8333,209.167 79.8333,209.167 78.5,208.5 Z"/></g>
<g><path style="opacity:1" fill="#67a7e3" d="M 248.5,141.5 C 254.262,145.763 258.762,151.096 262,157.5C 262.427,162.127 261.427,166.46 259,170.5C 240.632,189.035 222.132,207.368 203.5,225.5C 203.896,222.956 203.229,220.789 201.5,219C 202,218.5 202.5,218 203,217.5C 204.401,219.192 206.234,219.859 208.5,219.5C 208.579,218.07 208.246,216.736 207.5,215.5C 207.808,214.692 208.308,214.025 209,213.5C 209.71,214.973 210.876,215.64 212.5,215.5C 212.238,214.022 212.571,212.689 213.5,211.5C 214.086,211.709 214.586,212.043 215,212.5C 215.658,210.892 215.158,209.725 213.5,209C 213.833,208.667 214.167,208.333 214.5,208C 216.107,208.019 217.774,208.185 219.5,208.5C 219.822,206.278 219.155,204.444 217.5,203C 218,202.5 218.5,202 219,201.5C 220.401,203.192 222.234,203.859 224.5,203.5C 224.579,202.07 224.246,200.736 223.5,199.5C 223.808,198.692 224.308,198.025 225,197.5C 225.71,198.973 226.876,199.64 228.5,199.5C 228.238,198.022 228.571,196.689 229.5,195.5C 230.086,195.709 230.586,196.043 231,196.5C 231.658,194.892 231.158,193.725 229.5,193C 229.833,192.667 230.167,192.333 230.5,192C 232.107,192.019 233.774,192.185 235.5,192.5C 235.822,190.278 235.155,188.444 233.5,187C 234,186.5 234.5,186 235,185.5C 236.401,187.192 238.234,187.859 240.5,187.5C 240.579,186.07 240.246,184.736 239.5,183.5C 239.808,182.692 240.308,182.025 241,181.5C 241.71,182.973 242.876,183.64 244.5,183.5C 244.238,182.022 244.571,180.689 245.5,179.5C 246.086,179.709 246.586,180.043 247,180.5C 247.658,178.892 247.158,177.725 245.5,177C 245.833,176.667 246.167,176.333 246.5,176C 248.107,176.019 249.774,176.185 251.5,176.5C 251.822,174.278 251.155,172.444 249.5,171C 250,170.5 250.5,170 251,169.5C 252.401,171.192 254.234,171.859 256.5,171.5C 256.714,169.856 256.38,168.356 255.5,167C 256.624,166.751 257.624,166.251 258.5,165.5C 257.391,163.786 258.058,163.119 260.5,163.5C 260.795,160.266 260.129,157.266 258.5,154.5C 256.812,152.971 255.479,151.137 254.5,149C 253.207,148.51 251.873,148.343 250.5,148.5C 250.122,146.079 249.455,143.746 248.5,141.5 Z"/></g>
<g><path style="opacity:0.004" fill="#fefffe" d="M 231.5,209.5 C 232.833,210.167 232.833,210.167 231.5,209.5 Z"/></g>
<g><path style="opacity:0.004" fill="#fefffe" d="M 225.5,215.5 C 226.833,216.167 226.833,216.167 225.5,215.5 Z"/></g>
<g><path style="opacity:0.004" fill="#fefffe" d="M 323.5,220.5 C 324.833,221.167 324.833,221.167 323.5,220.5 Z"/></g>
<g><path style="opacity:0.004" fill="#fefffe" d="M 507.5,220.5 C 508.833,221.167 508.833,221.167 507.5,220.5 Z"/></g>
<g><path style="opacity:1" fill="#5b9cd4" d="M 203.5,225.5 C 202.71,226.794 201.71,227.961 200.5,229C 201.667,229.167 202.833,229.333 204,229.5C 265.123,229.116 326.289,229.116 387.5,229.5C 389.099,229.232 390.432,229.566 391.5,230.5C 327.095,230.829 262.762,230.496 198.5,229.5C 198.577,228.25 199.244,227.417 200.5,227C 200.167,226.667 199.833,226.333 199.5,226C 200.793,225.51 202.127,225.343 203.5,225.5 Z"/></g>
<g><path style="opacity:1" fill="#1a8ee9" d="M 198.5,229.5 C 262.762,230.496 327.095,230.829 391.5,230.5C 393.812,231.32 396.146,232.153 398.5,233C 399.874,235.583 401.374,238.083 403,240.5C 403.5,250.828 403.666,261.161 403.5,271.5C 401.989,272.502 400.322,273.169 398.5,273.5C 398.5,275.167 398.5,276.833 398.5,278.5C 395.759,278.707 393.426,279.707 391.5,281.5C 327.847,282.572 264.181,282.572 200.5,281.5C 199.43,283.973 200.43,285.307 203.5,285.5C 203.525,288.179 204.858,289.512 207.5,289.5C 207.525,292.179 208.858,293.512 211.5,293.5C 211.525,296.179 212.858,297.512 215.5,297.5C 215.525,300.179 216.858,301.512 219.5,301.5C 219.525,304.179 220.858,305.512 223.5,305.5C 223.525,308.179 224.858,309.512 227.5,309.5C 227.525,312.179 228.858,313.512 231.5,313.5C 231.525,316.179 232.858,317.512 235.5,317.5C 235.658,321.418 237.658,323.418 241.5,323.5C 241.525,326.179 242.858,327.512 245.5,327.5C 245.525,330.179 246.858,331.512 249.5,331.5C 249.525,334.179 250.858,335.512 253.5,335.5C 253.525,338.179 254.858,339.512 257.5,339.5C 257.427,341.027 258.094,342.027 259.5,342.5C 260.833,347.5 260.833,352.5 259.5,357.5C 257.005,358.199 254.672,359.199 252.5,360.5C 252.5,361.5 252.5,362.5 252.5,363.5C 250.549,363.773 249.049,363.107 248,361.5C 247.505,363.473 247.338,365.473 247.5,367.5C 244.5,367.167 243.167,368.5 243.5,371.5C 242.127,371.343 240.793,371.51 239.5,372C 240.38,373.356 240.714,374.856 240.5,376.5C 237.204,377.423 233.871,378.423 230.5,379.5C 227.86,378.905 225.193,378.572 222.5,378.5C 197.5,353.167 172.5,327.833 147.5,302.5C 148.978,302.762 150.311,302.429 151.5,301.5C 150.149,298.804 148.316,296.47 146,294.5C 145.503,291.854 145.336,289.187 145.5,286.5C 146.675,286.281 147.675,286.614 148.5,287.5C 149.256,290.977 150.256,294.31 151.5,297.5C 160.408,298.167 161.241,296.501 154,292.5C 153.563,289.606 152.896,286.939 152,284.5C 159.214,277.152 166.714,270.152 174.5,263.5C 175.245,261.253 176.578,259.42 178.5,258C 181.833,256.333 185.167,254.667 188.5,253C 192.581,248.12 196.914,243.453 201.5,239C 200.051,237.883 198.384,237.216 196.5,237C 195.809,235.933 195.309,234.766 195,233.5C 194.517,234.448 194.351,235.448 194.5,236.5C 193.5,236.5 192.5,236.5 191.5,236.5C 191.702,233.124 192.702,229.624 194.5,226C 195.416,225.626 196.25,225.126 197,224.5C 197.198,226.382 197.698,228.048 198.5,229.5 Z"/></g>
<g><path style="opacity:0.988" fill="#92c1e7" d="M 387.5,229.5 C 394.03,228.341 399.197,230.674 403,236.5C 404.103,242.756 404.603,249.089 404.5,255.5C 404.499,261.011 404.166,266.344 403.5,271.5C 403.666,261.161 403.5,250.828 403,240.5C 401.374,238.083 399.874,235.583 398.5,233C 396.146,232.153 393.812,231.32 391.5,230.5C 390.432,229.566 389.099,229.232 387.5,229.5 Z"/></g>
<g><path style="opacity:0.004" fill="#fefffe" d="M 7.5,241.5 C 8.83333,242.167 8.83333,242.167 7.5,241.5 Z"/></g>
<g><path style="opacity:1" fill="#63a3de" d="M 110.5,244.5 C 107.512,251.976 107.845,259.309 111.5,266.5C 110.833,266.5 110.167,266.5 109.5,266.5C 106.638,261.205 105.804,255.539 107,249.5C 107.697,247.416 108.864,245.749 110.5,244.5 Z"/></g>
<g><path style="opacity:0.004" fill="#fefffe" d="M 66.5,260.5 C 67.8333,261.167 67.8333,261.167 66.5,260.5 Z"/></g>
<g><path style="opacity:0.004" fill="#fefffe" d="M 39.5,266.5 C 40.8333,267.167 40.8333,267.167 39.5,266.5 Z"/></g>
<g><path style="opacity:0.557" fill="#bdddf4" d="M 109.5,266.5 C 110.167,266.5 110.833,266.5 111.5,266.5C 123.167,278.833 135.167,290.833 147.5,302.5C 172.5,327.833 197.5,353.167 222.5,378.5C 184.216,341.883 146.549,304.55 109.5,266.5 Z"/></g>
<g><path style="opacity:1" fill="#6fabe0" d="M 403.5,271.5 C 402.275,278.051 398.275,281.384 391.5,281.5C 393.426,279.707 395.759,278.707 398.5,278.5C 398.5,276.833 398.5,275.167 398.5,273.5C 400.322,273.169 401.989,272.502 403.5,271.5 Z"/></g>
<g><path style="opacity:1" fill="#74afd9" d="M 200.5,281.5 C 201.5,282.833 202.5,284.167 203.5,285.5C 200.43,285.307 199.43,283.973 200.5,281.5 Z"/></g>
<g><path style="opacity:0.004" fill="#fefffe" d="M 385.5,286.5 C 386.833,287.167 386.833,287.167 385.5,286.5 Z"/></g>
<g><path style="opacity:1" fill="#71b0dd" d="M 203.5,285.5 C 205.167,286.5 206.5,287.833 207.5,289.5C 204.858,289.512 203.525,288.179 203.5,285.5 Z"/></g>
<g><path style="opacity:1" fill="#72addd" d="M 207.5,289.5 C 209.167,290.5 210.5,291.833 211.5,293.5C 208.858,293.512 207.525,292.179 207.5,289.5 Z"/></g>
<g><path style="opacity:0.004" fill="#fefffe" d="M 409.5,294.5 C 410.833,295.167 410.833,295.167 409.5,294.5 Z"/></g>
<g><path style="opacity:1" fill="#74b0e0" d="M 211.5,293.5 C 213.167,294.5 214.5,295.833 215.5,297.5C 212.858,297.512 211.525,296.179 211.5,293.5 Z"/></g>
<g><path style="opacity:1" fill="#74aedc" d="M 215.5,297.5 C 217.167,298.5 218.5,299.833 219.5,301.5C 216.858,301.512 215.525,300.179 215.5,297.5 Z"/></g>
<g><path style="opacity:1" fill="#71b0dd" d="M 219.5,301.5 C 221.167,302.5 222.5,303.833 223.5,305.5C 220.858,305.512 219.525,304.179 219.5,301.5 Z"/></g>
<g><path style="opacity:0.004" fill="#fefffe" d="M 132.5,307.5 C 133.833,308.167 133.833,308.167 132.5,307.5 Z"/></g>
<g><path style="opacity:1" fill="#75afde" d="M 223.5,305.5 C 225.167,306.5 226.5,307.833 227.5,309.5C 224.858,309.512 223.525,308.179 223.5,305.5 Z"/></g>
<g><path style="opacity:1" fill="#74afdf" d="M 227.5,309.5 C 229.167,310.5 230.5,311.833 231.5,313.5C 228.858,313.512 227.525,312.179 227.5,309.5 Z"/></g>
<g><path style="opacity:1" fill="#75b0de" d="M 231.5,313.5 C 233.167,314.5 234.5,315.833 235.5,317.5C 232.858,317.512 231.525,316.179 231.5,313.5 Z"/></g>
<g><path style="opacity:1" fill="#6cabdc" d="M 235.5,317.5 C 237.833,319.167 239.833,321.167 241.5,323.5C 237.658,323.418 235.658,321.418 235.5,317.5 Z"/></g>
<g><path style="opacity:0.004" fill="#fefffe" d="M 90.5,323.5 C 91.8333,324.167 91.8333,324.167 90.5,323.5 Z"/></g>
<g><path style="opacity:0.004" fill="#fefffe" d="M 448.5,323.5 C 449.833,324.167 449.833,324.167 448.5,323.5 Z"/></g>
<g><path style="opacity:1" fill="#75b0de" d="M 241.5,323.5 C 243.167,324.5 244.5,325.833 245.5,327.5C 242.858,327.512 241.525,326.179 241.5,323.5 Z"/></g>
<g><path style="opacity:1" fill="#74b0e0" d="M 245.5,327.5 C 247.167,328.5 248.5,329.833 249.5,331.5C 246.858,331.512 245.525,330.179 245.5,327.5 Z"/></g>
<g><path style="opacity:1" fill="#75afdf" d="M 249.5,331.5 C 251.167,332.5 252.5,333.833 253.5,335.5C 250.858,335.512 249.525,334.179 249.5,331.5 Z"/></g>
<g><path style="opacity:1" fill="#72b1df" d="M 253.5,335.5 C 255.167,336.5 256.5,337.833 257.5,339.5C 254.858,339.512 253.525,338.179 253.5,335.5 Z"/></g>
<g><path style="opacity:0.737" fill="#95ceed" d="M 257.5,339.5 C 258.906,339.973 259.573,340.973 259.5,342.5C 258.094,342.027 257.427,341.027 257.5,339.5 Z"/></g>
<g><path style="opacity:0.004" fill="#fefffe" d="M 168.5,349.5 C 169.833,350.167 169.833,350.167 168.5,349.5 Z"/></g>
<g><path style="opacity:1" fill="#6da8dc" d="M 259.5,342.5 C 263.5,347.5 263.5,352.5 259.5,357.5C 260.833,352.5 260.833,347.5 259.5,342.5 Z"/></g>
<g><path style="opacity:0.004" fill="#fefffe" d="M 373.5,361.5 C 374.833,362.167 374.833,362.167 373.5,361.5 Z"/></g>
<g><path style="opacity:0.004" fill="#fefffe" d="M 344.5,362.5 C 345.833,363.167 345.833,363.167 344.5,362.5 Z"/></g>
<g><path style="opacity:0.004" fill="#fefffe" d="M 260.5,366.5 C 261.833,367.167 261.833,367.167 260.5,366.5 Z"/></g>
<g><path style="opacity:1" fill="#63a6e3" d="M 259.5,357.5 C 253.061,365.774 245.728,373.274 237.5,380C 232.082,382.362 227.082,381.862 222.5,378.5C 225.193,378.572 227.86,378.905 230.5,379.5C 233.871,378.423 237.204,377.423 240.5,376.5C 240.714,374.856 240.38,373.356 239.5,372C 240.793,371.51 242.127,371.343 243.5,371.5C 243.167,368.5 244.5,367.167 247.5,367.5C 247.338,365.473 247.505,363.473 248,361.5C 249.049,363.107 250.549,363.773 252.5,363.5C 252.5,362.5 252.5,361.5 252.5,360.5C 254.672,359.199 257.005,358.199 259.5,357.5 Z"/></g>
<g><path style="opacity:0.004" fill="#fefffe" d="M 429.5,381.5 C 430.833,382.167 430.833,382.167 429.5,381.5 Z"/></g>
<g><path style="opacity:0.004" fill="#fefffe" d="M 288.5,385.5 C 289.833,386.167 289.833,386.167 288.5,385.5 Z"/></g>
<g><path style="opacity:0.004" fill="#fefffe" d="M 315.5,397.5 C 316.833,398.167 316.833,398.167 315.5,397.5 Z"/></g>
<g><path style="opacity:0.004" fill="#fefffe" d="M 156.5,409.5 C 157.833,410.167 157.833,410.167 156.5,409.5 Z"/></g>
<g><path style="opacity:0.004" fill="#fefffe" d="M 335.5,413.5 C 336.833,414.167 336.833,414.167 335.5,413.5 Z"/></g>
<g><path style="opacity:0.004" fill="#fefffe" d="M 44.5,417.5 C 45.8333,418.167 45.8333,418.167 44.5,417.5 Z"/></g>
<g><path style="opacity:0.004" fill="#fefffe" d="M 357.5,429.5 C 358.833,430.167 358.833,430.167 357.5,429.5 Z"/></g>
<g><path style="opacity:0.004" fill="#fefffe" d="M 89.5,432.5 C 90.8333,433.167 90.8333,433.167 89.5,432.5 Z"/></g>
<g><path style="opacity:0.004" fill="#fefffe" d="M 422.5,432.5 C 423.833,433.167 423.833,433.167 422.5,432.5 Z"/></g>
<g><path style="opacity:0.004" fill="#fefffe" d="M 19.5,445.5 C 20.8333,446.167 20.8333,446.167 19.5,445.5 Z"/></g>
<g><path style="opacity:0.004" fill="#fefffe" d="M 409.5,446.5 C 410.833,447.167 410.833,447.167 409.5,446.5 Z"/></g>
<g><path style="opacity:0.004" fill="#fefffe" d="M 77.5,457.5 C 78.8333,458.167 78.8333,458.167 77.5,457.5 Z"/></g>
<g><path style="opacity:0.004" fill="#fefffe" d="M 235.5,459.5 C 236.833,460.167 236.833,460.167 235.5,459.5 Z"/></g>
<g><path style="opacity:0.004" fill="#fefffe" d="M 413.5,468.5 C 414.833,469.167 414.833,469.167 413.5,468.5 Z"/></g>
<g><path style="opacity:0.004" fill="#fefffe" d="M 203.5,482.5 C 204.833,483.167 204.833,483.167 203.5,482.5 Z"/></g>
<g><path style="opacity:0.004" fill="#fefffe" d="M 38.5,484.5 C 39.8333,485.167 39.8333,485.167 38.5,484.5 Z"/></g>
<g><path style="opacity:0.004" fill="#fefffe" d="M 339.5,486.5 C 340.833,487.167 340.833,487.167 339.5,486.5 Z"/></g>
<g><path style="opacity:0.004" fill="#fefffe" d="M 132.5,495.5 C 133.833,496.167 133.833,496.167 132.5,495.5 Z"/></g>
<g><path style="opacity:0.004" fill="#fefffe" d="M 65.5,503.5 C 66.8333,504.167 66.8333,504.167 65.5,503.5 Z"/></g>
<g><path style="opacity:0.004" fill="#fefffe" d="M 208.5,509.5 C 209.833,510.167 209.833,510.167 208.5,509.5 Z"/></g>
</svg>
