<svg width="94" height="95" viewBox="0 0 94 95" fill="none" xmlns="http://www.w3.org/2000/svg">
<g clip-path="url(#clip0_108_589)">
<g filter="url(#filter0_f_108_589)">
<ellipse cx="48" cy="91" rx="12" ry="4" fill="#299EFF"/>
</g>
<path d="M51.3279 40.5035H73.4179V56.2182H35.5151C35.526 47.5346 42.5961 40.5035 51.3279 40.5035Z" fill="url(#paint0_linear_108_589)"/>
<path opacity="0.7" d="M67.2058 40.5035C68.3462 42.2748 69.2801 44.1757 69.9752 46.1954L73.418 56.229V40.5035H67.2058Z" fill="url(#paint1_linear_108_589)"/>
<path d="M92 40.5035C90.3058 28.9579 84.1479 18.0278 73.7762 10.5431C55.0204 -2.9898 28.6296 -0.0736856 13.3165 17.2286C-3.85377 36.637 -1.09523 66.1438 18.9639 82.1176C29.3681 90.4123 42.3354 93.3825 54.5425 91.406L51.5776 73.3909C43.769 74.6545 35.4391 72.5052 29.0423 66.6838C19.2245 57.741 17.5195 42.7176 25.1 31.8308C34.0707 18.9459 51.9686 16.505 64.0562 26.139C64.3494 26.3766 64.6427 26.6142 64.9359 26.8626C70.3552 31.5608 73.2984 38.4731 73.3527 45.6229L73.4179 56.2182L92 40.5035Z" fill="url(#paint2_linear_108_589)"/>
<path d="M28.5103 22.4128C28.999 21.7648 29.4877 21.1168 29.9981 20.4687L31.6272 18.6327C32.2028 18.0494 32.811 17.4986 33.4083 16.937C34.0165 16.3862 34.6681 15.8893 35.298 15.3601C37.8936 13.3296 40.8151 11.7096 43.8886 10.4891C46.9729 9.29028 50.2202 8.50185 53.5 8.22104C54.3254 8.15623 55.1508 8.13463 55.9653 8.09143L58.4306 8.12383L60.8851 8.36144C61.6996 8.48025 62.5033 8.62065 63.3069 8.77186C62.4924 8.73946 61.6779 8.69626 60.8633 8.64225L58.4306 8.65305L56.0087 8.77186C55.2051 8.86906 54.4014 8.94467 53.5977 9.05267C50.4048 9.51709 47.2661 10.3163 44.2795 11.5044C41.2821 12.66 38.4475 14.2045 35.7867 16.0297C33.1476 17.855 30.7366 20.0259 28.5103 22.4128Z" fill="url(#paint3_linear_108_589)"/>
<path d="M28.5101 22.4128C40.7389 7.23819 62.4271 4.03047 78.4679 14.4421C78.3918 14.3665 78.3158 14.3017 78.2398 14.2261C77.9031 13.9129 77.5664 13.5996 77.2189 13.2972C76.6759 12.822 76.122 12.336 75.5464 11.8824C56.0412 -3.65944 27.5652 -0.527316 11.9371 18.8703C10.9597 20.0799 10.0583 21.3328 9.22205 22.6072C8.39666 23.8817 7.63643 25.1885 6.95223 26.517C6.60469 27.1866 6.28974 27.8562 5.97479 28.5258C4.12853 32.5868 2.94475 36.8422 2.38001 41.1516C2.28226 41.8644 2.20624 42.588 2.15194 43.3116C2.03247 44.7481 1.98903 46.1954 2.01075 47.6318C2.03247 49.0683 2.11936 50.5155 2.28226 51.9412C2.6841 55.5161 3.50948 59.0479 4.74757 62.45C4.99736 63.1304 5.25801 63.8109 5.54038 64.4805C6.95223 67.8286 8.78763 71.0256 11.0249 73.9957C13.2621 76.9658 15.912 79.7091 18.9638 82.1284C19.5937 82.636 20.2345 83.1112 20.8861 83.5756C21.1033 83.7269 21.3205 83.8673 21.5269 84.0185C21.9721 84.3209 22.4066 84.6233 22.8518 84.9149C23.1125 85.0769 23.3731 85.2281 23.6338 85.3901C24.0465 85.6385 24.4592 85.8977 24.8719 86.1354C25.1542 86.2974 25.4366 86.4378 25.719 86.589C26.1208 86.805 26.5335 87.0318 26.9462 87.237C27.2394 87.3774 27.5327 87.5178 27.8259 87.6582C27.9019 87.7014 27.9888 87.7338 28.0648 87.7662C28.0865 87.777 28.1083 87.7878 28.13 87.7986C28.4341 87.939 28.7382 88.0902 29.0531 88.2198C29.3463 88.3494 29.6504 88.4682 29.9437 88.5979C30.3564 88.7707 30.7799 88.9435 31.2035 89.0947C31.4967 89.2027 31.8008 89.3107 32.1049 89.4187C32.5284 89.5699 32.9628 89.7211 33.3864 89.8507C33.6796 89.9479 33.9837 90.0343 34.277 90.1207C34.4399 90.1639 34.6028 90.2071 34.7657 90.2611C34.8851 90.2935 35.0155 90.3259 35.1349 90.3691C35.287 90.4123 35.4499 90.4555 35.6019 90.4987C35.8951 90.5743 36.1884 90.6499 36.4707 90.7255C36.5251 90.7363 36.5794 90.7471 36.6337 90.7579C36.7423 90.7795 36.84 90.8011 36.9486 90.8335C37.2418 90.8983 37.5459 90.9739 37.8392 91.0387C38.0129 91.0712 38.1976 91.1143 38.3713 91.1468C38.4148 91.1576 38.4582 91.1684 38.4908 91.1684C38.5559 91.1792 38.6102 91.1899 38.6754 91.2008C39.0772 91.2764 39.4791 91.3412 39.8809 91.406C40.0547 91.4384 40.2393 91.4708 40.4131 91.4924C40.576 91.514 40.7389 91.5464 40.9018 91.568C41.0973 91.5896 41.2819 91.6112 41.4774 91.6328C41.7706 91.6652 42.0638 91.7084 42.3571 91.7408C42.3788 91.7408 42.4005 91.7408 42.4222 91.7516C42.6612 91.7732 42.9001 91.8056 43.139 91.8272C43.2476 91.838 43.3454 91.838 43.454 91.8488C43.8124 91.8812 44.1816 91.9028 44.54 91.9244C44.616 91.9244 44.7029 91.9352 44.7789 91.946C44.9744 91.9568 45.1808 91.9676 45.3763 91.9784C45.4088 91.9784 45.4414 91.9784 45.474 91.9784C46.1365 92 46.799 92.0108 47.4723 92.0108C47.5266 92.0108 47.5809 92.0108 47.6244 92.0108C47.9393 92.0108 48.2434 91.9892 48.5584 91.9892C48.7864 91.9784 49.0145 91.9784 49.2426 91.9676C49.5901 91.9568 49.9268 91.9244 50.2743 91.9028C50.5132 91.8812 50.763 91.8704 51.0019 91.8596C51.3712 91.8272 51.7404 91.784 52.1097 91.7516C52.3269 91.73 52.5333 91.7084 52.7505 91.6868C53.3261 91.6112 53.9125 91.5356 54.4881 91.4384L51.5775 73.3908C44.3228 74.5681 36.6228 72.7968 30.4432 67.8718C24.2311 62.9252 20.8101 55.7861 20.4082 48.4526C20.3865 48.4634 20.3648 48.4742 20.3431 48.485C19.6915 39.4127 22.3414 30.0703 28.5101 22.4128Z" fill="url(#paint4_linear_108_589)"/>
<path d="M31.41 72.516C27.3265 71.8572 23.3842 70.3235 19.8111 68.2175C18.03 67.1482 16.3249 65.9494 14.7502 64.5993C13.1646 63.2709 11.7527 61.7372 10.4712 60.1279C12.0568 61.4456 13.6316 62.7416 15.2823 63.9405C16.9223 65.1393 18.6165 66.2626 20.365 67.2886C23.8512 69.3731 27.5546 71.0364 31.41 72.516Z" fill="url(#paint5_linear_108_589)"/>
<path d="M49.4707 73.6393C49.373 73.6501 49.2752 73.6717 49.1775 73.6825C49.0037 73.7041 48.8408 73.7257 48.6671 73.7473C48.363 73.7797 48.048 73.8229 47.7439 73.8553C47.2987 73.8985 46.8425 73.9417 46.3864 73.9633C46.0714 73.9849 45.7565 74.0065 45.4307 74.0173C44.9854 74.0389 44.5293 74.0497 44.084 74.0605C43.7582 74.0713 43.4432 74.0713 43.1174 74.0713C42.7807 74.0713 42.4441 74.0605 42.0965 74.0497C42.0748 74.0497 42.0531 74.0497 42.0205 74.0497C41.9336 74.0497 41.8467 74.0497 41.749 74.0389C41.4232 74.0281 41.0974 74.0173 40.7716 74.0065C40.3154 73.9849 39.8484 73.9417 39.3923 73.8985C39.0774 73.8661 38.7515 73.8445 38.4366 73.8121C37.9587 73.7581 37.4809 73.6933 37.003 73.6285C36.6989 73.5853 36.3948 73.5529 36.0907 73.4989C35.5694 73.4125 35.0373 73.3153 34.516 73.2073C34.2553 73.1533 34.0056 73.1209 33.7449 73.0669C32.963 72.9049 32.181 72.7104 31.3991 72.5052C27.6305 71.49 24.1009 70.0319 20.8536 68.1959C17.6064 66.3598 14.6415 64.1565 12.0024 61.6508C11.4703 61.154 10.9598 60.6356 10.4602 60.1171C7.95149 57.4926 5.77941 54.5873 3.97659 51.466C3.2598 50.2347 2.60818 48.9495 2 47.6318C2.02172 49.0683 2.1086 50.5156 2.27151 51.9412C2.67334 55.5162 3.49873 59.0479 4.73682 62.45C4.99747 63.1305 5.25812 63.8109 5.54048 64.4805C6.95233 67.8286 8.78774 71.0256 11.025 73.9957C13.2622 76.9658 15.9122 79.7091 18.9639 82.1284C19.5938 82.636 20.2346 83.1113 20.8862 83.5757C21.1034 83.7269 21.3206 83.8673 21.527 84.0185C21.9722 84.3209 22.4067 84.6233 22.8519 84.9149C23.1126 85.0769 23.3732 85.2281 23.6339 85.3901C24.0466 85.6386 24.4593 85.8978 24.872 86.1354C25.1543 86.2974 25.4367 86.4378 25.7191 86.589C26.1209 86.805 26.5336 87.0318 26.9463 87.237C27.2395 87.3774 27.5328 87.5178 27.826 87.6582C27.902 87.7014 27.9889 87.7338 28.0649 87.7662C28.0866 87.777 28.1084 87.7878 28.1301 87.7986C28.4342 87.939 28.7383 88.0903 29.0532 88.2199C29.3464 88.3495 29.6505 88.4683 29.9438 88.5979C30.3565 88.7707 30.78 88.9435 31.2036 89.0947C31.4968 89.2027 31.8009 89.3107 32.105 89.4187C32.5285 89.5699 32.963 89.7211 33.3865 89.8507C33.6797 89.9479 33.9838 90.0343 34.2771 90.1207C34.44 90.1639 34.6029 90.2071 34.7658 90.2611C34.8852 90.2935 35.0156 90.3259 35.135 90.3691C35.2871 90.4123 35.45 90.4556 35.602 90.4988C35.8953 90.5744 36.1885 90.65 36.4709 90.7256C36.5252 90.7364 36.5795 90.7472 36.6338 90.758C36.7424 90.7796 36.8401 90.8012 36.9487 90.8228C37.2419 90.8876 37.546 90.9632 37.8393 91.028C38.013 91.0604 38.1977 91.1036 38.3714 91.136C38.4149 91.1468 38.4583 91.1576 38.4909 91.1576C38.556 91.1684 38.6104 91.1792 38.6755 91.19C39.0774 91.2656 39.4792 91.3304 39.881 91.3952C40.0656 91.4276 40.2394 91.46 40.4132 91.4816C40.5761 91.5032 40.739 91.5356 40.9019 91.5572C41.0974 91.5788 41.282 91.6004 41.4775 91.622C41.7707 91.6544 42.064 91.6976 42.3572 91.73C42.3789 91.73 42.4006 91.73 42.4223 91.7408C42.6613 91.7624 42.9002 91.7948 43.1391 91.8164C43.2477 91.8272 43.3455 91.8272 43.4541 91.838C43.8125 91.8704 44.1817 91.892 44.5401 91.9136C44.6161 91.9136 44.703 91.9244 44.779 91.9244C44.9745 91.9352 45.1809 91.946 45.3764 91.9568C45.409 91.9568 45.4415 91.9568 45.4741 91.9568C46.1366 91.9784 46.7991 91.9892 47.4724 91.9892C47.5267 91.9892 47.581 91.9892 47.6245 91.9892C47.9394 91.9892 48.2435 91.9676 48.5585 91.9676C48.7865 91.9568 49.0146 91.9568 49.2427 91.946C49.5902 91.9352 49.9269 91.9028 50.2744 91.8812C50.5133 91.8596 50.7631 91.8488 51.002 91.838C51.3713 91.8056 51.7406 91.7624 52.1098 91.73C52.327 91.7084 52.5334 91.6868 52.7506 91.6652C53.3262 91.5896 53.9126 91.514 54.4882 91.4168L51.5777 73.3909C50.8826 73.5097 50.1767 73.5853 49.4707 73.6393Z" fill="url(#paint6_linear_108_589)"/>
</g>
<defs>
<filter id="filter0_f_108_589" x="-14" y="37" width="124" height="108" filterUnits="userSpaceOnUse" color-interpolation-filters="sRGB">
<feFlood flood-opacity="0" result="BackgroundImageFix"/>
<feBlend mode="normal" in="SourceGraphic" in2="BackgroundImageFix" result="shape"/>
<feGaussianBlur stdDeviation="25" result="effect1_foregroundBlur_108_589"/>
</filter>
<linearGradient id="paint0_linear_108_589" x1="35.5231" y1="48.3596" x2="73.4254" y2="48.3596" gradientUnits="userSpaceOnUse">
<stop stop-color="#2C28FF"/>
<stop offset="1" stop-color="#28C8FF"/>
</linearGradient>
<linearGradient id="paint1_linear_108_589" x1="71.3364" y1="43.7568" x2="75.1246" y2="56.0083" gradientUnits="userSpaceOnUse">
<stop stop-color="white"/>
<stop offset="1" stop-color="#1E1BAB"/>
</linearGradient>
<linearGradient id="paint2_linear_108_589" x1="2.00004" y1="47.0241" x2="92.0052" y2="47.0241" gradientUnits="userSpaceOnUse">
<stop stop-color="#28C8FF"/>
<stop offset="1" stop-color="#2C28FF"/>
</linearGradient>
<linearGradient id="paint3_linear_108_589" x1="28.5144" y1="15.2492" x2="63.314" y2="15.2492" gradientUnits="userSpaceOnUse">
<stop/>
<stop offset="0.5126" stop-color="#28C8FF"/>
<stop offset="1"/>
</linearGradient>
<linearGradient id="paint4_linear_108_589" x1="1.99989" y1="47.0005" x2="78.4658" y2="47.0005" gradientUnits="userSpaceOnUse">
<stop stop-color="#2C28FF"/>
<stop offset="1" stop-color="#28C8FF"/>
</linearGradient>
<linearGradient id="paint5_linear_108_589" x1="10.895" y1="61.6793" x2="32.6008" y2="74.5854" gradientUnits="userSpaceOnUse">
<stop/>
<stop offset="0.5126" stop-color="#28C8FF"/>
<stop offset="1"/>
</linearGradient>
<linearGradient id="paint6_linear_108_589" x1="2.00491" y1="69.8178" x2="54.536" y2="69.8178" gradientUnits="userSpaceOnUse">
<stop stop-color="#28C8FF"/>
<stop offset="1" stop-color="#2C28FF"/>
</linearGradient>
<clipPath id="clip0_108_589">
<rect width="94" height="94.0106" fill="white"/>
</clipPath>
</defs>
</svg>
