<svg width="99" height="125" viewBox="0 0 99 125" fill="none" xmlns="http://www.w3.org/2000/svg">
<g clip-path="url(#clip0_108_591)">
<path d="M53.8279 40.5035H75.9179V56.2182H38.0151C38.026 47.5346 45.0961 40.5035 53.8279 40.5035Z" fill="url(#paint0_linear_108_591)"/>
<path opacity="0.7" d="M69.7058 40.5035C70.8462 42.2748 71.7801 44.1757 72.4752 46.1954L75.918 56.229V40.5035H69.7058Z" fill="url(#paint1_linear_108_591)"/>
<path d="M94.5 40.5035C92.8058 28.9579 86.6479 18.0278 76.2762 10.5431C57.5204 -2.9898 31.1296 -0.0736856 15.8165 17.2286C-1.35377 36.637 1.40477 66.1438 21.4639 82.1176C31.8681 90.4123 44.8354 93.3825 57.0425 91.406L54.0776 73.3909C46.269 74.6545 37.9391 72.5052 31.5423 66.6838C21.7245 57.741 20.0195 42.7176 27.6 31.8308C36.5707 18.9459 54.4686 16.505 66.5562 26.139C66.8494 26.3766 67.1427 26.6142 67.4359 26.8626C72.8552 31.5608 75.7984 38.4731 75.8527 45.6229L75.9179 56.2182L94.5 40.5035Z" fill="url(#paint2_linear_108_591)"/>
<path d="M31.0103 22.4128C31.499 21.7648 31.9877 21.1168 32.4981 20.4687L34.1272 18.6327C34.7028 18.0494 35.311 17.4986 35.9083 16.937C36.5165 16.3862 37.1681 15.8894 37.798 15.3601C40.3936 13.3297 43.3151 11.7096 46.3886 10.4891C49.4729 9.29029 52.7202 8.50186 56 8.22105C56.8254 8.15625 57.6508 8.13465 58.4653 8.09145L60.9306 8.12385L63.3851 8.36146C64.1996 8.48026 65.0033 8.62067 65.8069 8.77187C64.9924 8.73947 64.1779 8.69627 63.3633 8.64227L60.9306 8.65307L58.5087 8.77187C57.7051 8.86908 56.9014 8.94468 56.0977 9.05268C52.9048 9.5171 49.7661 10.3163 46.7795 11.5044C43.7821 12.66 40.9475 14.2045 38.2867 16.0298C35.6476 17.855 33.2366 20.0259 31.0103 22.4128Z" fill="url(#paint3_linear_108_591)"/>
<path d="M31.0101 22.4128C43.2389 7.23821 64.9271 4.03048 80.9679 14.4421C80.8918 14.3665 80.8158 14.3017 80.7398 14.2261C80.4031 13.9129 80.0664 13.5997 79.7189 13.2973C79.1759 12.822 78.622 12.336 78.0464 11.8824C58.5412 -3.65943 30.0652 -0.5273 14.4371 18.8703C13.4597 20.0799 12.5583 21.3328 11.722 22.6072C10.8967 23.8817 10.1364 25.1885 9.45223 26.517C9.10469 27.1866 8.78974 27.8562 8.47479 28.5259C6.62853 32.5868 5.44475 36.8422 4.88001 41.1516C4.78226 41.8644 4.70624 42.588 4.65194 43.3116C4.53247 44.7481 4.48903 46.1954 4.51075 47.6318C4.53247 49.0683 4.61936 50.5155 4.78226 51.9412C5.1841 55.5161 6.00948 59.0479 7.24757 62.45C7.49736 63.1304 7.75801 63.8109 8.04038 64.4805C9.45223 67.8286 11.2876 71.0256 13.5249 73.9957C15.7621 76.9658 18.412 79.7091 21.4638 82.1284C22.0937 82.636 22.7345 83.1112 23.3861 83.5757C23.6033 83.7269 23.8205 83.8673 24.0269 84.0185C24.4721 84.3209 24.9066 84.6233 25.3518 84.9149C25.6125 85.0769 25.8731 85.2281 26.1338 85.3901C26.5465 85.6385 26.9592 85.8978 27.3719 86.1354C27.6542 86.2974 27.9366 86.4378 28.219 86.589C28.6208 86.805 29.0335 87.0318 29.4462 87.237C29.7394 87.3774 30.0327 87.5178 30.3259 87.6582C30.4019 87.7014 30.4888 87.7338 30.5648 87.7662C30.5865 87.777 30.6083 87.7878 30.63 87.7986C30.9341 87.939 31.2382 88.0902 31.5531 88.2199C31.8463 88.3495 32.1504 88.4683 32.4437 88.5979C32.8564 88.7707 33.2799 88.9435 33.7035 89.0947C33.9967 89.2027 34.3008 89.3107 34.6049 89.4187C35.0284 89.5699 35.4628 89.7211 35.8864 89.8507C36.1796 89.9479 36.4837 90.0343 36.777 90.1207C36.9399 90.1639 37.1028 90.2071 37.2657 90.2611C37.3851 90.2935 37.5155 90.3259 37.6349 90.3691C37.787 90.4123 37.9499 90.4555 38.1019 90.4987C38.3951 90.5743 38.6884 90.6499 38.9707 90.7256C39.0251 90.7364 39.0794 90.7472 39.1337 90.7579C39.2423 90.7796 39.34 90.8012 39.4486 90.8336C39.7418 90.8984 40.0459 90.974 40.3392 91.0388C40.5129 91.0712 40.6976 91.1144 40.8713 91.1468C40.9148 91.1576 40.9582 91.1684 40.9908 91.1684C41.0559 91.1792 41.1102 91.19 41.1754 91.2008C41.5772 91.2764 41.9791 91.3412 42.3809 91.406C42.5547 91.4384 42.7393 91.4708 42.9131 91.4924C43.076 91.514 43.2389 91.5464 43.4018 91.568C43.5973 91.5896 43.7819 91.6112 43.9774 91.6328C44.2706 91.6652 44.5638 91.7084 44.8571 91.7408C44.8788 91.7408 44.9005 91.7408 44.9222 91.7516C45.1612 91.7732 45.4001 91.8056 45.639 91.8272C45.7476 91.838 45.8454 91.838 45.954 91.8488C46.3124 91.8812 46.6816 91.9028 47.04 91.9244C47.116 91.9244 47.2029 91.9352 47.2789 91.946C47.4744 91.9568 47.6808 91.9676 47.8763 91.9784C47.9088 91.9784 47.9414 91.9784 47.974 91.9784C48.6365 92 49.299 92.0108 49.9723 92.0108C50.0266 92.0108 50.0809 92.0108 50.1244 92.0108C50.4393 92.0108 50.7434 91.9892 51.0584 91.9892C51.2864 91.9784 51.5145 91.9784 51.7426 91.9676C52.0901 91.9568 52.4268 91.9244 52.7743 91.9028C53.0132 91.8812 53.263 91.8704 53.5019 91.8596C53.8712 91.8272 54.2404 91.784 54.6097 91.7516C54.8269 91.73 55.0333 91.7084 55.2505 91.6868C55.8261 91.6112 56.4125 91.5356 56.9881 91.4384L54.0775 73.3909C46.8228 74.5681 39.1228 72.7968 32.9432 67.8718C26.7311 62.9252 23.3101 55.7861 22.9082 48.4527C22.8865 48.4635 22.8648 48.4743 22.8431 48.4851C22.1915 39.4127 24.8414 30.0703 31.0101 22.4128Z" fill="url(#paint4_linear_108_591)"/>
<path d="M33.91 72.516C29.8265 71.8572 25.8842 70.3235 22.3111 68.2174C20.53 67.1482 18.8249 65.9494 17.2502 64.5993C15.6646 63.2708 14.2527 61.7372 12.9712 60.1279C14.5568 61.4456 16.1316 62.7416 17.7823 63.9405C19.4223 65.1393 21.1165 66.2626 22.865 67.2886C26.3512 69.3731 30.0546 71.0364 33.91 72.516Z" fill="url(#paint5_linear_108_591)"/>
<path d="M51.9707 73.6393C51.873 73.6501 51.7752 73.6717 51.6775 73.6825C51.5037 73.7041 51.3408 73.7257 51.1671 73.7473C50.863 73.7797 50.548 73.8229 50.2439 73.8553C49.7987 73.8985 49.3425 73.9417 48.8864 73.9633C48.5714 73.9849 48.2565 74.0065 47.9307 74.0173C47.4854 74.0389 47.0293 74.0497 46.584 74.0605C46.2582 74.0713 45.9432 74.0713 45.6174 74.0713C45.2807 74.0713 44.9441 74.0605 44.5965 74.0497C44.5748 74.0497 44.5531 74.0497 44.5205 74.0497C44.4336 74.0497 44.3467 74.0497 44.249 74.0389C43.9232 74.0281 43.5974 74.0173 43.2716 74.0065C42.8154 73.9849 42.3484 73.9417 41.8923 73.8985C41.5774 73.8661 41.2515 73.8445 40.9366 73.8121C40.4587 73.7581 39.9809 73.6933 39.503 73.6285C39.1989 73.5853 38.8948 73.5529 38.5907 73.4989C38.0694 73.4124 37.5373 73.3152 37.016 73.2072C36.7553 73.1532 36.5056 73.1208 36.2449 73.0668C35.463 72.9048 34.681 72.7104 33.8991 72.5052C30.1305 71.49 26.6009 70.0319 23.3536 68.1958C20.1064 66.3598 17.1415 64.1565 14.5024 61.6508C13.9703 61.154 13.4598 60.6355 12.9602 60.1171C10.4515 57.4926 8.27941 54.5873 6.47659 51.466C5.7598 50.2347 5.10818 48.9495 4.5 47.6318C4.52172 49.0683 4.6086 50.5155 4.77151 51.9412C5.17334 55.5161 5.99873 59.0479 7.23682 62.45C7.49747 63.1304 7.75812 63.8109 8.04048 64.4805C9.45233 67.8286 11.2877 71.0256 13.525 73.9957C15.7622 76.9658 18.4122 79.7091 21.4639 82.1284C22.0938 82.636 22.7346 83.1112 23.3862 83.5757C23.6034 83.7269 23.8206 83.8673 24.027 84.0185C24.4722 84.3209 24.9067 84.6233 25.3519 84.9149C25.6126 85.0769 25.8732 85.2281 26.1339 85.3901C26.5466 85.6385 26.9593 85.8978 27.372 86.1354C27.6543 86.2974 27.9367 86.4378 28.2191 86.589C28.6209 86.805 29.0336 87.0318 29.4463 87.237C29.7395 87.3774 30.0328 87.5178 30.326 87.6582C30.402 87.7014 30.4889 87.7338 30.5649 87.7662C30.5866 87.777 30.6084 87.7878 30.6301 87.7986C30.9342 87.939 31.2383 88.0902 31.5532 88.2198C31.8464 88.3495 32.1505 88.4683 32.4438 88.5979C32.8565 88.7707 33.28 88.9435 33.7036 89.0947C33.9968 89.2027 34.3009 89.3107 34.605 89.4187C35.0285 89.5699 35.463 89.7211 35.8865 89.8507C36.1797 89.9479 36.4838 90.0343 36.7771 90.1207C36.94 90.1639 37.1029 90.2071 37.2658 90.2611C37.3852 90.2935 37.5156 90.3259 37.635 90.3691C37.7871 90.4123 37.95 90.4555 38.102 90.4987C38.3953 90.5743 38.6885 90.6499 38.9709 90.7255C39.0252 90.7363 39.0795 90.7471 39.1338 90.7579C39.2424 90.7795 39.3401 90.8011 39.4487 90.8227C39.7419 90.8875 40.046 90.9632 40.3393 91.028C40.513 91.0604 40.6977 91.1036 40.8714 91.136C40.9149 91.1468 40.9583 91.1576 40.9909 91.1576C41.056 91.1684 41.1104 91.1792 41.1755 91.19C41.5774 91.2656 41.9792 91.3304 42.381 91.3952C42.5656 91.4276 42.7394 91.46 42.9132 91.4816C43.0761 91.5032 43.239 91.5356 43.4019 91.5572C43.5974 91.5788 43.782 91.6004 43.9775 91.622C44.2707 91.6544 44.564 91.6976 44.8572 91.73C44.8789 91.73 44.9006 91.73 44.9223 91.7408C45.1613 91.7624 45.4002 91.7948 45.6391 91.8164C45.7477 91.8272 45.8455 91.8272 45.9541 91.838C46.3125 91.8704 46.6817 91.892 47.0401 91.9136C47.1161 91.9136 47.203 91.9244 47.279 91.9244C47.4745 91.9352 47.6809 91.946 47.8764 91.9568C47.909 91.9568 47.9415 91.9568 47.9741 91.9568C48.6366 91.9784 49.2991 91.9892 49.9724 91.9892C50.0267 91.9892 50.081 91.9892 50.1245 91.9892C50.4394 91.9892 50.7435 91.9676 51.0585 91.9676C51.2865 91.9568 51.5146 91.9568 51.7427 91.946C52.0902 91.9352 52.4269 91.9028 52.7744 91.8812C53.0133 91.8596 53.2631 91.8488 53.502 91.838C53.8713 91.8056 54.2406 91.7624 54.6098 91.73C54.827 91.7084 55.0334 91.6868 55.2506 91.6652C55.8262 91.5896 56.4126 91.514 56.9882 91.4168L54.0777 73.3909C53.3826 73.5097 52.6767 73.5853 51.9707 73.6393Z" fill="url(#paint6_linear_108_591)"/>
</g>
<path d="M14.194 110.966H7.434C7.434 112.058 7.434 113.055 7.434 113.956C7.434 114.84 7.44267 115.672 7.46 116.452H15.494V119H3.846C3.86333 118.168 3.88067 117.44 3.898 116.816C3.93267 116.175 3.95867 115.516 3.976 114.84C3.99333 114.147 4.01067 113.358 4.028 112.474C4.04533 111.59 4.054 110.481 4.054 109.146C4.054 107.811 4.04533 106.442 4.028 105.038C4.01067 103.617 3.976 102.204 3.924 100.8H15V103.348H7.486C7.45133 104.024 7.434 104.795 7.434 105.662C7.434 106.511 7.434 107.482 7.434 108.574H14.194V110.966ZM30.0443 113.774C29.6283 113.757 29.2556 113.748 28.9263 113.748C28.597 113.731 28.2763 113.722 27.9643 113.722C27.6523 113.705 27.3316 113.696 27.0023 113.696C26.673 113.679 26.3003 113.67 25.8843 113.67C25.4683 113.67 25.0956 113.679 24.7663 113.696C24.437 113.696 24.1163 113.705 23.8043 113.722C23.4923 113.722 23.1716 113.731 22.8423 113.748C22.513 113.748 22.1403 113.757 21.7243 113.774L21.8543 111.382C22.2703 111.399 22.643 111.417 22.9723 111.434C23.3016 111.451 23.6223 111.469 23.9343 111.486C24.2463 111.486 24.567 111.486 24.8963 111.486C25.2256 111.486 25.5983 111.486 26.0143 111.486C26.4303 111.486 26.803 111.486 27.1323 111.486C27.4616 111.486 27.7823 111.486 28.0943 111.486C28.4063 111.469 28.727 111.451 29.0563 111.434C29.403 111.417 29.7843 111.399 30.2003 111.382L30.0443 113.774ZM55.7958 100.488C55.7091 101.632 55.6484 102.854 55.6138 104.154C55.5964 105.437 55.5878 106.893 55.5878 108.522C55.5878 109.926 55.5878 111.139 55.5878 112.162C55.6051 113.167 55.6224 114.069 55.6398 114.866C55.6744 115.646 55.7004 116.365 55.7178 117.024C55.7524 117.665 55.7958 118.324 55.8478 119H52.3638C52.3811 118.307 52.3984 117.613 52.4158 116.92C52.4504 116.227 52.4764 115.481 52.4938 114.684C52.5111 113.869 52.5198 112.977 52.5198 112.006C52.5371 111.018 52.5458 109.891 52.5458 108.626V106.676L52.7538 105.038L52.3118 106.676C51.7571 108.721 51.1504 110.784 50.4918 112.864C49.8504 114.944 49.1224 116.989 48.3078 119L45.0578 119.312C44.1564 117.232 43.3678 115.1 42.6918 112.916C42.0158 110.715 41.3918 108.565 40.8198 106.468L40.4818 105.246L40.6898 106.468V108.964C40.6898 111.061 40.7071 112.925 40.7418 114.554C40.7764 116.166 40.8111 117.648 40.8458 119H37.4658C37.5004 118.168 37.5264 117.431 37.5438 116.79C37.5784 116.131 37.5958 115.481 37.5958 114.84C37.6131 114.199 37.6218 113.514 37.6218 112.786C37.6391 112.058 37.6478 111.191 37.6478 110.186C37.6478 109.181 37.6478 108.279 37.6478 107.482C37.6478 106.667 37.6391 105.905 37.6218 105.194C37.6044 104.466 37.5871 103.773 37.5698 103.114C37.5524 102.455 37.5351 101.771 37.5178 101.06L42.0678 100.488C42.6744 103.071 43.3678 105.653 44.1478 108.236C44.9278 110.801 45.7511 113.315 46.6178 115.776C47.0338 114.58 47.4324 113.393 47.8138 112.214C48.2124 111.035 48.5851 109.839 48.9318 108.626C49.2958 107.395 49.6424 106.139 49.9718 104.856C50.3011 103.556 50.6131 102.204 50.9078 100.8L55.7958 100.488ZM73.8268 110.966H67.0668C67.0668 112.058 67.0668 113.055 67.0668 113.956C67.0668 114.84 67.0755 115.672 67.0928 116.452H75.1268V119H63.4788C63.4961 118.168 63.5135 117.44 63.5308 116.816C63.5655 116.175 63.5915 115.516 63.6088 114.84C63.6261 114.147 63.6435 113.358 63.6608 112.474C63.6781 111.59 63.6868 110.481 63.6868 109.146C63.6868 107.811 63.6781 106.442 63.6608 105.038C63.6435 103.617 63.6088 102.204 63.5568 100.8H74.6328V103.348H67.1188C67.0841 104.024 67.0668 104.795 67.0668 105.662C67.0668 106.511 67.0668 107.482 67.0668 108.574H73.8268V110.966ZM80.2651 119.312C80.7331 117.561 81.2011 115.889 81.6691 114.294C82.1545 112.682 82.6571 111.122 83.1771 109.614C83.6971 108.106 84.2518 106.624 84.8411 105.168C85.4478 103.712 86.0978 102.256 86.7911 100.8L90.0411 100.488C90.7345 101.927 91.3758 103.365 91.9651 104.804C92.5545 106.243 93.1091 107.725 93.6291 109.25C94.1665 110.758 94.6691 112.318 95.1371 113.93C95.6225 115.542 96.0991 117.232 96.5671 119L93.0311 119.312C92.7885 118.393 92.5458 117.475 92.3031 116.556C92.0605 115.62 91.8178 114.684 91.5751 113.748H85.1531C84.9105 114.597 84.6765 115.455 84.4511 116.322C84.2258 117.189 84.0178 118.081 83.8271 119L80.2651 119.312ZM88.4291 103.738C87.4238 106.199 86.5485 108.739 85.8031 111.356H90.9251C90.5438 110.056 90.1451 108.765 89.7291 107.482C89.3305 106.199 88.8971 104.951 88.4291 103.738Z" fill="#0066E7"/>
<defs>
<linearGradient id="paint0_linear_108_591" x1="38.0231" y1="48.3596" x2="75.9254" y2="48.3596" gradientUnits="userSpaceOnUse">
<stop stop-color="#2C28FF"/>
<stop offset="1" stop-color="#28C8FF"/>
</linearGradient>
<linearGradient id="paint1_linear_108_591" x1="73.8364" y1="43.7568" x2="77.6246" y2="56.0083" gradientUnits="userSpaceOnUse">
<stop stop-color="white"/>
<stop offset="1" stop-color="#1E1BAB"/>
</linearGradient>
<linearGradient id="paint2_linear_108_591" x1="4.50004" y1="47.0241" x2="94.5052" y2="47.0241" gradientUnits="userSpaceOnUse">
<stop stop-color="#28C8FF"/>
<stop offset="1" stop-color="#2C28FF"/>
</linearGradient>
<linearGradient id="paint3_linear_108_591" x1="31.0144" y1="15.2492" x2="65.814" y2="15.2492" gradientUnits="userSpaceOnUse">
<stop/>
<stop offset="0.5126" stop-color="#28C8FF"/>
<stop offset="1"/>
</linearGradient>
<linearGradient id="paint4_linear_108_591" x1="4.49989" y1="47.0005" x2="80.9658" y2="47.0005" gradientUnits="userSpaceOnUse">
<stop stop-color="#2C28FF"/>
<stop offset="1" stop-color="#28C8FF"/>
</linearGradient>
<linearGradient id="paint5_linear_108_591" x1="13.395" y1="61.6793" x2="35.1008" y2="74.5854" gradientUnits="userSpaceOnUse">
<stop/>
<stop offset="0.5126" stop-color="#28C8FF"/>
<stop offset="1"/>
</linearGradient>
<linearGradient id="paint6_linear_108_591" x1="4.50491" y1="69.8177" x2="57.036" y2="69.8177" gradientUnits="userSpaceOnUse">
<stop stop-color="#28C8FF"/>
<stop offset="1" stop-color="#2C28FF"/>
</linearGradient>
<clipPath id="clip0_108_591">
<rect width="90" height="90" fill="white" transform="translate(4.5 2)"/>
</clipPath>
</defs>
</svg>
